/* XPM */
static char *conn[]={
"20 20 13 1",
"# c None",
". c None",
"e c #ffffff",
"d c #000000",
"j c #585858",
"c c #808000",
"i c #808080",
"k c #a0a0a0",
"b c #c0c000",
"g c #c3c3c3",
"h c #dcdcdc",
"a c #ffff00",
"f c #ffffff",
".........#..........",
".......###..........",
"..############aaaa..",
"..#########aaabbbc..",
"..#########bbbbcc#..",
"..#########cbbb###..",
"..###dd####ecbbb##..",
"..##dfgd####abbbb#..",
"..#dfhhgd##abbbcc#..",
"..dighhhgdabbcc###..",
"..djighhhgdcc#####..",
"..djjighhhgd######..",
"..#djgighhgkd#####..",
"..##dfkighkid#####..",
"..#dfkijikijd#####..",
"..dfkddjiijd######..",
"..fkd##djjd#######..",
"..kd####dd########..",
"....................",
"...................."};
