/* XPM */
static char *open[]={
"20 20 96 2",
"Qt c None",
".# c #000000",
"#h c #121212",
"#D c #1f1f1e",
".X c #222221",
"#t c #232323",
".y c #303030",
"#C c #343433",
"#B c #414140",
"#A c #434343",
"#z c #464646",
".Y c #493018",
".K c #494948",
".z c #4a3119",
"#v c #4a4a49",
"#u c #4a4a4a",
"#y c #4b4b4a",
"#w c #4c4c4b",
"#x c #4c4c4c",
".a c #4e331b",
".o c #524f4c",
".i c #53504d",
".M c #53514e",
".l c #54514e",
".j c #55524f",
".m c #565350",
".k c #5c5a57",
".W c #686867",
"#g c #6f6f6e",
"#s c #8d8d8b",
"#r c #949492",
".J c #949493",
".8 c #959594",
"#q c #9a9a99",
"#f c #9e9e9d",
".I c #a0a09f",
"#p c #a1a1a0",
".7 c #a2a2a1",
"#e c #a5a5a4",
"#j c #a6a6a5",
"#o c #a7a7a6",
".V c #a9a9a8",
"#k c #aaaaa8",
"#n c #ababaa",
"#l c #adadab",
".H c #adadac",
"#m c #aeaeac",
"#d c #aeaead",
".6 c #afafae",
".x c #b3b3b3",
".w c #b5b5b5",
".U c #b6b6b5",
".L c #b77d44",
".5 c #b9b9b8",
".G c #babab9",
".v c #bcbcbc",
"#i c #bdbdbd",
"#. c #bebebc",
"#c c #bfbfbe",
".T c #c1c1c0",
".4 c #c2c2c1",
"#b c #c3c3c2",
".n c #c4864e",
"## c #c4c4c2",
".u c #c4c4c4",
"#a c #c6c6c5",
".F c #c7c7c6",
".0 c #cacac9",
".S c #cbcbca",
".t c #cbcbcb",
".3 c #cccccb",
".Z c #cdcdcd",
".9 c #cecece",
".2 c #d2d2d0",
".E c #d2d2d1",
".s c #d4d4d4",
".1 c #d5d5d4",
".R c #d6d6d5",
".N c #dadada",
".O c #dbdbda",
".A c #dbdbdb",
".Q c #dddddc",
".B c #dfdfde",
".P c #e1e1e0",
".r c #e4e4e4",
".b c #e5a566",
".D c #e6e6e4",
".C c #e8e8e7",
".q c #ececec",
".p c #f5f5f5",
".g c #f8ac62",
".e c #fdc587",
".f c #fec282",
".d c #fec585",
".h c #fec88a",
".c c #fed39a",
"QtQtQtQtQtQtQtQtQtQtQtQtQtQtQtQtQtQtQtQt",
"QtQtQtQtQtQtQtQtQtQtQtQtQtQtQtQtQtQtQtQt",
"QtQtQtQtQtQtQtQt.#.#.#.#QtQtQtQtQtQtQtQt",
"QtQtQtQtQtQtQt.#.#Qt.#.#.#.#Qt.#QtQtQtQt",
"QtQtQtQtQtQt.#QtQtQtQtQt.#.#.#.#QtQtQtQt",
"QtQtQtQtQtQtQtQtQtQtQtQtQt.#.#.#QtQtQtQt",
"QtQtQtQtQtQtQtQtQtQtQtQt.#.#.#.#QtQtQtQt",
"QtQtQt.a.a.a.aQtQtQtQtQtQtQtQtQtQtQtQtQt",
"QtQt.a.b.c.d.b.a.a.a.a.a.a.aQtQtQtQtQtQt",
"QtQt.a.c.e.f.g.g.g.g.g.g.g.g.#QtQtQtQtQt",
"QtQt.a.h.f.a.i.i.j.k.l.l.m.m.l.#.#.#QtQt",
"QtQt.a.f.n.o.p.p.q.rQt.s.t.u.v.w.x.yQtQt",
"QtQt.a.f.z.A.B.C.D.B.E.F.G.H.I.J.KQtQtQt",
"QtQt.a.L.M.N.O.P.Q.R.S.T.U.V.I.W.XQtQtQt",
"QtQt.a.Y.Z.0.1.1.2.3.4.5.6.7.8.KQtQtQtQt",
"QtQt.a.m.9#.###a#b#c.U#d#e#f#g#hQtQtQtQt",
"QtQt.a#i#j#k#l#m#n#o#p#q#r#s.KQtQtQtQtQt",
"QtQt#t#u#v#w#x#w#y.K#z#A#B#C#DQtQtQtQtQt",
"QtQtQtQtQtQtQtQtQtQtQtQtQtQtQtQtQtQtQtQt",
"QtQtQtQtQtQtQtQtQtQtQtQtQtQtQtQtQtQtQtQt"};
