/* XPM */
static char *save[]={
"20 20 78 2",
"Qt c None",
"#g c #000000",
".R c #030303",
".x c #050505",
"#a c #0c0c0c",
"#l c #1c1c1c",
".y c #292929",
".D c #2c2c2c",
".n c #2d2d2d",
"#j c #323232",
".Z c #333333",
".# c #343434",
"#b c #353535",
".B c #3a3a3a",
"#. c #3e3e3e",
"#h c #404040",
".7 c #424242",
"#c c #474747",
".3 c #494949",
".J c #4f4f4f",
".X c #505050",
".8 c #515151",
".d c #525252",
".9 c #535353",
".4 c #555555",
".b c #565656",
".r c #575757",
".s c #585858",
".A c #616161",
".l c #636363",
".h c #666666",
".f c #676767",
".2 c #696969",
".V c #6a6a6a",
".H c #6b6b6b",
".v c #6f6f6f",
".S c #737373",
".L c #767676",
".z c #777777",
".1 c #787878",
".T c #7a7a7a",
".0 c #7b7b7b",
".E c #7c7c7c",
"#f c #7d7d7d",
".U c #7e7e7e",
".K c #808080",
".M c #818181",
".u c #828282",
".g c #848484",
"#i c #858585",
".t c #8a8a8a",
".o c #909090",
"#e c #919191",
".e c #929292",
".5 c #949494",
".I c #959595",
".m c #989898",
".Y c #9d9d9d",
".c c #9e9e9e",
".a c #a0a0a0",
".p c #aeaeae",
".N c #b8b8b8",
".C c #bebebe",
".w c #c9c9c9",
".Q c #cccccc",
"#k c #d0d0d0",
"## c #d4d4d4",
".i c #d8d8d8",
".k c #dbdbdb",
".6 c #e6e6e6",
".q c #eaeaea",
"#d c #ececec",
".F c #f6f6f6",
".P c #f9f9f9",
".W c #fafafa",
".O c #fbfbfb",
".G c #fcfcfc",
".j c #ffffff",
"QtQtQtQtQtQtQtQtQtQtQtQtQtQtQtQtQtQtQtQt",
"QtQtQtQtQtQtQtQtQtQtQtQtQtQtQtQtQtQtQtQt",
"QtQtQtQtQtQt.#.#.#.aQtQtQtQtQtQtQtQtQtQt",
"QtQtQtQtQt.b.c.d.e.f.#.#.aQtQtQtQtQtQtQt",
"QtQtQtQtQt.#.g.h.i.j.j.k.l.#.#.aQtQtQtQt",
"QtQtQtQt.m.n.o.p.j.j.j.j.j.j.q.r.#.#QtQt",
"QtQtQtQt.s.t.u.i.j.j.j.j.j.j.j.v.w.xQtQt",
"QtQtQtQt.y.z.A.j.j.j.j.j.j.j.q.B.C.dQtQt",
"QtQtQt.c.D.E.i.F.F.j.j.j.j.G.H.I.d.aQtQt",
"QtQtQt.J.K.L.M.h.N.j.O.O.j.P.B.Q.RQtQtQt",
"QtQtQt.y.L.S.T.U.u.u.V.M.W.K.X.Y.dQtQtQt",
"QtQtQt.Z.0.s.1.s.s.H.2.f.r.3.t.d.aQtQtQt",
"QtQt.b.M.4.5.j.6.M.7.8.9.r#.###aQtQtQtQt",
"QtQt#b#.#c#d.6#d.6.j.j#c.3.3#e.dQtQtQtQt",
"QtQt#f.##g.q#d.q#d.q#h.8.3#i.d.aQtQtQtQt",
"QtQtQtQt.a.#.#.#.6#d#j.8#.#k#lQtQtQtQtQt",
"QtQtQtQtQtQtQt.a.#.#.##..r.Y.dQtQtQtQtQt",
"QtQtQtQtQtQtQtQtQtQt.a.#.#.#QtQtQtQtQtQt",
"QtQtQtQtQtQtQtQtQtQtQtQtQtQtQtQtQtQtQtQt",
"QtQtQtQtQtQtQtQtQtQtQtQtQtQtQtQtQtQtQtQt"};
