/* XPM */
static char *led0[]={
"12 12 86 2",
"Qt c None",
".# c #c9c9c9",
".e c #d5d5d5",
"#r c #e1e0e1",
"#i c #e1e1e1",
".L c #e4e4e4",
".b c #b4b5b4",
".C c #bcbdbc",
".a c #bdbdbd",
".V c #bfc0bf",
".c c #c0c0c0",
".d c #cbcbcb",
"#s c #e5e4e5",
"#. c #e5e5e5",
".U c #e8e8e8",
"#t c #eae9ea",
".1 c #eaeaea",
".B c #d9d9d9",
".l c #8d908d",
".s c #d2d2d2",
"#j c #e2dfe2",
"#n c #f2f2f2",
".f c #999a99",
"## c #cac9ca",
".k c #cbcacb",
"#o c #e7e4e7",
"#h c #eeeeee",
".K c #e8e8e8",
".6 c #610000",
".R c #650d0d",
".Y c #650f0f",
"#d c #660f0f",
".n c #686b68",
".u c #695552",
".t c #6d6f6d",
".m c #6d706d",
".H c #6e0000",
".5 c #6f0000",
".4 c #710000",
".M c #737673",
".Q c #740000",
".o c #747674",
".W c #760a0a",
".x c #770a0a",
".D c #7f2a28",
".v c #802a28",
".X c #810000",
".w c #830606",
".G c #840000",
".N c #840606",
".P c #870000",
".y c #8a4d4e",
".3 c #8c4d4e",
".I c #925b5b",
".h c #969796",
".g c #9a9b9a",
".p c #9a9c9a",
".7 c #9e6a6a",
"#e c #9e6b6b",
"#c c #9f6466",
".E c #a60000",
".i c #aaabaa",
".F c #ab0000",
".2 c #b0b0b0",
".q c #b0b1b0",
".O c #b40000",
".z c #b9abab",
".j c #babbba",
"#a c #c7c4c7",
".r c #c7c5c7",
"#b c #cbb7ba",
".A c #d3d3d3",
"#f c #e3d5d5",
".J c #e3e3e3",
"#k c #e9e5e9",
"#p c #efeeef",
".9 c #efefef",
".T c #f2f2f2",
"#q c #f4f3f4",
".0 c #f4f4f4",
".S c #f7f7f7",
"#l c #f9f4f9",
"#g c #fbfbfb",
".8 c #fdfdfd",
"#m c #fffdff",
".Z c #ffffff",
"QtQtQt.#.a.b.c.d.eQtQtQt",
"QtQtQt.f.g.h.i.j.kQtQtQt",
"QtQt.l.m.n.o.p.q.r.sQtQt",
".#.f.t.u.v.w.x.y.z.A.BQt",
".C.g.n.D.E.F.G.H.I.J.K.L",
".b.h.M.N.F.O.P.Q.R.S.T.U",
".V.i.g.W.G.P.X.H.Y.Z.0.1",
".d.j.2.3.4.Q.5.6.7.8.9#.",
".e###a#b#c#d.Y#e#f#g#h#i",
"QtQt#j#k#l#m.Z.8#g#nQtQt",
"QtQtQt#o#p#q.0.9#hQtQtQt",
"QtQtQt#r#s#t.1#.#iQtQtQt"};
