/* XPM */
static char *led1[]={
"12 12 86 2",
"Qt c None",
".# c #c9c9c9",
".e c #d5d5d5",
".C c #dedede",
"#r c #e1e0e1",
"#i c #e1e1e1",
".b c #b4b5b4",
".D c #bcbdbc",
".a c #bdbdbd",
".U c #bfc0bf",
".c c #c0c0c0",
".d c #cbcbcb",
".L c #e2e2e2",
"#s c #e5e4e5",
".9 c #e5e5e5",
".T c #e9e9e9",
"#t c #eae9ea",
".0 c #eaeaea",
".l c #8d908d",
".s c #d2d2d2",
"#j c #e2dfe2",
"#n c #f2f2f2",
".f c #999a99",
"#. c #cac9ca",
".k c #cbcacb",
".B c #dadada",
"#o c #e7e4e7",
"#h c #eeeeee",
".n c #686b68",
".t c #6d6f6d",
".m c #6d706d",
".M c #737673",
".o c #747674",
".u c #7a6c69",
".h c #969796",
".g c #9a9b9a",
".p c #9a9c9a",
".i c #aaabaa",
".1 c #b0b0b0",
".q c #b0b1b0",
".j c #babbba",
".v c #bc8785",
"## c #c7c4c7",
".r c #c7c5c7",
".A c #d3d3d3",
".z c #d4b0af",
".y c #e17170",
".2 c #e17775",
"#a c #e3c1c4",
".J c #e3e3e3",
".K c #e7e7e7",
"#k c #e9e5e9",
"#p c #efeeef",
".8 c #efefef",
".I c #f0716f",
".S c #f2f2f2",
"#q c #f4f3f4",
".Z c #f4f4f4",
".w c #f57d7b",
".R c #f7f7f7",
".x c #f95d5b",
"#l c #f9f4f9",
"#b c #fa7f80",
"#g c #fbfbfb",
".Q c #fd2927",
".7 c #fdfdfd",
"#d c #ff2827",
".X c #ff2927",
"#c c #ff2a29",
".5 c #ff2d2b",
".H c #ff4c4a",
".4 c #ff4e4c",
".W c #ff4f4c",
".3 c #ff5350",
".P c #ff5a57",
"#e c #ff7575",
".6 c #ff7675",
".V c #ff7876",
".G c #ff7e7c",
".O c #ff8583",
".E c #ffbdbc",
".F c #ffc6c5",
".N c #ffd6d5",
"#f c #ffd6d6",
"#m c #fffdff",
".Y c #ffffff",
"QtQtQt.#.a.b.c.d.eQtQtQt",
"QtQtQt.f.g.h.i.j.kQtQtQt",
"QtQt.l.m.n.o.p.q.r.sQtQt",
".#.f.t.u.v.w.x.y.z.A.B.C",
".D.g.n.v.E.F.G.H.I.J.K.L",
".b.h.M.w.F.N.O.P.Q.R.S.T",
".U.i.g.x.G.O.V.W.X.Y.Z.0",
".d.j.1.2.3.P.4.5.6.7.8.9",
".e#.###a#b#c#d#e#f#g#h#i",
"QtQt#j#k#l#m.Y.7#g#nQtQt",
"QtQtQt#o#p#q.Z.8#hQtQtQt",
"QtQtQt#r#s#t.0.9#iQtQtQt"};
