/* XPM */
static char *led2[]={
"12 12 83 2",
"Qt c None",
".# c #c9c9c9",
".e c #d5d5d5",
".C c #dedede",
"#o c #e1e0e1",
"#f c #e1e1e1",
".b c #b4b5b4",
".D c #bcbdbc",
".a c #bdbdbd",
".U c #bfc0bf",
".c c #c0c0c0",
".d c #cbcbcb",
".L c #e1e1e1",
"#p c #e5e4e5",
".8 c #e5e5e5",
".T c #e9e9e9",
"#q c #eae9ea",
".0 c #eaeaea",
".l c #8d908d",
".s c #d2d2d2",
"#g c #e2dfe2",
"#k c #f2f2f2",
".f c #999a99",
".9 c #cac9ca",
".k c #cbcacb",
".B c #d9d9d9",
"#l c #e4e3e4",
"#e c #eeeeee",
".4 c #006400",
".H c #007000",
".W c #007100",
".3 c #007200",
".P c #007500",
".V c #008000",
".G c #008300",
".O c #008600",
".E c #00a400",
".F c #00a900",
".N c #00b200",
".w c #068306",
".x c #0a780a",
".Q c #0d670d",
".X c #0f680f",
".v c #288028",
".y c #4e8b4e",
".2 c #4e8d4e",
".u c #526a52",
".I c #5b945b",
"#a c #669e66",
".n c #686b68",
".5 c #6a9f6a",
"#b c #6b9f6b",
".t c #6d6f6d",
".m c #6d706d",
".M c #737673",
".o c #747674",
".h c #969796",
".g c #9a9b9a",
".p c #9a9c9a",
".i c #aaabaa",
".z c #abbaab",
".1 c #b0b0b0",
".q c #b0b1b0",
".j c #babbba",
"## c #bac8ba",
"#. c #c7c4c7",
".r c #c7c5c7",
".A c #d3d3d3",
"#c c #d5e3d5",
".J c #e3e3e3",
".K c #e6e6e6",
"#h c #e7e3e7",
"#m c #efeeef",
".7 c #efefef",
".S c #f2f2f2",
"#n c #f4f3f4",
".Z c #f4f4f4",
".R c #f7f7f7",
"#i c #f9f4f9",
"#d c #fbfbfb",
".6 c #fdfdfd",
"#j c #fffdff",
".Y c #ffffff",
"QtQtQt.#.a.b.c.d.eQtQtQt",
"QtQtQt.f.g.h.i.j.kQtQtQt",
"QtQt.l.m.n.o.p.q.r.sQtQt",
".#.f.t.u.v.w.x.y.z.A.B.C",
".D.g.n.v.E.F.G.H.I.J.K.L",
".b.h.M.w.F.N.O.P.Q.R.S.T",
".U.i.g.x.G.O.V.W.X.Y.Z.0",
".d.j.1.2.3.P.W.4.5.6.7.8",
".e.9#.###a.X.X#b#c#d#e#f",
"QtQt#g#h#i#j.Y.6#d#kQtQt",
"QtQtQt#l#m#n.Z.7#eQtQtQt",
"QtQtQt#o#p#q.0.8#fQtQtQt"};
