/* XPM */
static char *led3[]={
"12 12 84 2",
"Qt c None",
".# c #c9c9c9",
".e c #d5d5d5",
".C c #dedede",
"#p c #e1e0e1",
"#g c #e1e1e1",
".b c #b4b5b4",
".D c #bcbdbc",
".a c #bdbdbd",
".U c #bfc0bf",
".c c #c0c0c0",
".d c #cbcbcb",
".L c #e1e1e1",
"#q c #e5e4e5",
".9 c #e5e5e5",
".T c #e9e9e9",
"#r c #eae9ea",
".1 c #eaeaea",
".l c #8d908d",
".s c #d2d2d2",
"#h c #e2dfe2",
"#l c #f2f2f2",
".f c #999a99",
"#. c #cac9ca",
".k c #cbcacb",
".B c #d9d9d9",
"#m c #e7e4e7",
"#f c #eeeeee",
".Q c #27fd27",
".Y c #27ff27",
"#c c #29fe29",
".5 c #2bff2b",
".H c #4aff4a",
".X c #4cff4c",
".4 c #50ff50",
".P c #57ff57",
".V c #5bf95b",
".x c #5bfa5b",
".n c #686b68",
".u c #697d69",
".t c #6d6f6d",
".m c #6d706d",
".I c #6ff06f",
".y c #70e170",
".M c #737673",
".o c #747674",
".3 c #75e175",
".6 c #75ff75",
".W c #76ff76",
".w c #7bf57b",
".G c #7cff7c",
"#b c #80f880",
".O c #83ff83",
".v c #85bd85",
".h c #969796",
".g c #9a9b9a",
".p c #9a9c9a",
".i c #aaabaa",
".z c #afd4af",
".2 c #b0b0b0",
".q c #b0b1b0",
".j c #babbba",
".E c #bcffbc",
"#a c #c4e0c4",
".F c #c5ffc5",
"## c #c7c4c7",
".r c #c7c5c7",
".A c #d3d3d3",
".N c #d5ffd5",
"#d c #d6ffd6",
".J c #e3e3e3",
".K c #e6e6e6",
"#i c #e9e5e9",
"#n c #efeeef",
".8 c #efefef",
".S c #f2f2f2",
"#o c #f4f3f4",
".0 c #f4f4f4",
".R c #f7f7f7",
"#j c #f9f4f9",
"#e c #fbfbfb",
".7 c #fdfdfd",
"#k c #fffdff",
".Z c #ffffff",
"QtQtQt.#.a.b.c.d.eQtQtQt",
"QtQtQt.f.g.h.i.j.kQtQtQt",
"QtQt.l.m.n.o.p.q.r.sQtQt",
".#.f.t.u.v.w.x.y.z.A.B.C",
".D.g.n.v.E.F.G.H.I.J.K.L",
".b.h.M.w.F.N.O.P.Q.R.S.T",
".U.i.g.V.G.O.W.X.Y.Z.0.1",
".d.j.2.3.4.P.X.5.6.7.8.9",
".e#.###a#b#c.Y.6#d#e#f#g",
"QtQt#h#i#j#k.Z.7#e#lQtQt",
"QtQtQt#m#n#o.0.8#fQtQtQt",
"QtQtQt#p#q#r.1.9#gQtQtQt"};
