/* XPM */
static char *rdon[]={
"20 20 16 1",
". c None",
"# c #626562",
"a c #7b7d7b",
"b c #949594",
"c c #acaeac",
"d c #cdcacd",
"e c #cdcecd",
"k c #dedede",
"m c #e6e2e6",
"j c #e6e6e6",
"i c #ff0000",
"g c #ff4441",
"f c #ff8d8b",
"h c #ffd6d5",
"n c #fffaff",
"l c #ffffff",
"....................",
"....................",
".......#aabbc.......",
".....###aabbccd.....",
"....#####abccdde....",
"...#####fgggcdeee...",
"...###ffhffggieejk..",
"..####fhhhffggjjjj..",
"..aa#fhhhhffggijll..",
"..aaagfhhhffggilll..",
"..bbbgffffffggilll..",
"..bbcggffffgggilll..",
"..ccccgggggggillll..",
"...cddggggggiilll...",
"...ddmmniiiilllll...",
"....mmmnnlllllll....",
".....mnnlllllll.....",
".......nlllll.......",
"....................",
"...................."};
