/* XPM */
static char *groff[]={
"20 20 15 1",
". c None",
"i c #005500",
"g c #006d00",
"f c #008900",
"h c #00b200",
"# c #626562",
"a c #7b7d7b",
"b c #949594",
"c c #acaeac",
"d c #cdcacd",
"e c #cdcecd",
"l c #e6e2e6",
"j c #e6e6e6",
"m c #fffaff",
"k c #ffffff",
"....................",
"....................",
".......#aabbc.......",
".....###aabbccd.....",
"....#####abccdde....",
"...#####fgggcdeee...",
"...###ffhffggieej...",
"..####fhhhffggjjjj..",
"..aa#fhhhhffggijkk..",
"..aaagfhhhffggikkk..",
"..bbbgffffffggikkk..",
"..bbcggffffgggikkk..",
"..ccccgggggggikkkk..",
"...cddggggggiikkk...",
"...ddllmiiiikkkkk...",
"....lllmmkkkkkkk....",
"......mmkkkkkkk.....",
".......mkkkkk.......",
"....................",
"...................."};
