/* XPM */
static char *next[]={
"20 20 3 1",
". c None",
"a c #000000",
"# c #ffffff",
"....................",
"....................",
"....................",
"......##............",
"......#a#...........",
"......#aa#..........",
"......#aaa#.........",
"......#aaaa#........",
"......#aaaaa#.......",
"......#aaaaaa#......",
"......#aaaaaa#......",
"......#aaaaa#.......",
"......#aaaa#........",
"......#aaa#.........",
"......#aa#..........",
"......#a#...........",
"......##............",
"....................",
"....................",
"...................."};
