/* XPM */
static char * next_green_xpm[] = {
"32 32 25 1",
" 	c None",
".	c #000000",
"+	c #8FEF8F",
"@	c #CAFECA",
"#	c #EBFEEB",
"$	c #ABFEAC",
"%	c #DCFEDC",
"&	c #96FB96",
"*	c #FDFEFD",
"=	c #BBFEBB",
"-	c #F2FEF3",
";	c #E3FEE3",
">	c #9AF79B",
",	c #D3FED4",
"'	c #B3FEB3",
")	c #A3FEA3",
"!	c #93F493",
"~	c #EFFEF0",
"{	c #DFFEE0",
"]	c #9CFE9C",
"^	c #C3FEC3",
"/	c #F7FEF8",
"(	c #E7FEE8",
"_	c #D7FED8",
":	c #B7FEB8",
"          **(%@^^^,;/*          ",
"        *#@@^^^^^==='=;*        ",
"      *~@@@@@^^^===='''$(*      ",
"     *%@@@@@^^^=^==='''$$^*     ",
"    *,@@@@@@@^^^==='''$$$)$*    ",
"   *,@@@@,%%%,^===='''$$$))$*   ",
"  *%@@@@%#*--%@==='''$$$)))]=*  ",
"  #@@@@,-****;@==='''$$$))]]&{  ",
" *@@^@@;*****;^='.''$$$)))]]!!* ",
" #@^@^,#****#,=='..$$$$))]]&!!_ ",
"*@^^^^@;-**#,^=''...$$)))]]&!+]*",
"/^^^^^@,;;%@^='''....)))]]&!+++-",
"(^^^^=^^@@^=='''$.....)]]]&!+++,",
",=^========''''$$......]]&!++++=",
"^=======................&!+++++]",
"========.................+++++++",
"'=='='''.................+++++++",
"='''''''................+++++++)",
"@'''''$'$$$$$))))......++++++++=",
"{'$'$'$$$$$$))))].....+++++++++,",
"-$$$$$$$$)))))]]]....++++++++++-",
"*'$$$$$))))))]]]&...++++++++++]*",
" %))))))))]]]]]&!..+++++++++++% ",
" *)))))))]]]]&!!+.+++++++++++!* ",
"  ;]]]]]]]]&!!!++++++++++++++{  ",
"  *']]]]&&!!!+++++++++++++++'*  ",
"   *)!&!!!+++++++++++++++++)*   ",
"    /)++++++++++++++++++++]*    ",
"     *'++++++++++++++++++'*     ",
"      *%!++++++++++++++!{*      ",
"        *,]++++++++++]_*        ",
"          *-,'>++]:,-*          "};
