/* XPM */
static char * next_gray_xpm[] = {
"32 32 11 1",
" 	c None",
".	c #000000",
"+	c #BFBFBF",
"@	c #E3E3E3",
"#	c #D4D4D4",
"$	c #F3F3F4",
"%	c #CDCDCD",
"&	c #EBEBEC",
"*	c #DBDBDB",
"=	c #FDFDFE",
"-	c #C4C4C4",
"             &@@*@&             ",
"          @@@@@*@*****          ",
"        @@@@@@@@*@***###        ",
"       &@@@@@@@********##@      ",
"      @@@@@@@@*@*****######     ",
"     @@@@&&$&@@@****#*####%#    ",
"    @@@@&$==$$@******####%#%*   ",
"   @@@@&=====$@*****######%%%   ",
"  @@@@@$=====&@**.#*####%%%%--  ",
"  @@@@&$====$&***..####%#%%%-+  ",
" @@@@@@$===$&@***...###%%%%--+% ",
" @@*@*@&&$&&****#....##%%%%-+++ ",
" *@@*@*@@@@***#*#.....%%%%--+++&",
"@@**@********#*##......%%--++++*",
"@****@**................%-+++++%",
"********.................+++++++",
"********.................+++++++",
"******#*................++++++-%",
"@*#*#*#########%%......++++++++*",
"&#*####*#####%#%%.....+++++++++&",
" ##########%#%%%%....++++++++++ ",
" ########%#%%%%%%...++++++++++% ",
"  ####%#%%%%%%%--..+++++++++++  ",
"  ##%%#%%%%%%%--+.+++++++++++-  ",
"   %%%%%%%%%--+++++++++++++++   ",
"   *%%%%%--+-+++++++++++++++*   ",
"    %-----+++++++++++++++++%    ",
"     %+++++++++++++++++++-%     ",
"      *++++++++++++++++++*      ",
"        -+++++++++++++--        ",
"          %++++++++++%          ",
"            &*-++%*&            "};
