/* XPM */
static char *pctl[]={
"20 20 73 2",
"Qt c None",
".l c #000000",
".C c #008080",
"#b c #009000",
".M c #00c0c0",
"#c c #00ff00",
".A c #020204",
".a c #1e5003",
".# c #217003",
".X c #2739b0",
".7 c #2d890b",
"## c #2e8a0c",
"#e c #2e8b0d",
".s c #303030",
".4 c #308f10",
".9 c #319011",
".2 c #339515",
".R c #359918",
".V c #369a19",
".1 c #369a1a",
".Q c #379c1b",
".T c #39a01e",
".K c #39a11f",
"#d c #39ce39",
".I c #3aa321",
".P c #3ba522",
".H c #3ca623",
".B c #3da925",
"#. c #3e3e3c",
".F c #3fac28",
".x c #40ae2a",
".E c #40af2b",
".z c #41b12d",
".r c #42b32e",
".y c #43b42f",
".q c #44b630",
".p c #45b933",
".o c #46b933",
".b c #4e4e4c",
".w c #626264",
".i c #6cda5f",
".8 c #6cda6c",
".D c #800000",
"#a c #808080",
".h c #96e58d",
".5 c #97e497",
".n c #a7a323",
".6 c #aaaaac",
".v c #b4b4b6",
".3 c #b9d285",
".W c #b9d286",
".U c #b9d386",
".G c #bad487",
".J c #bad488",
".g c #baedb4",
".u c #bbd689",
".0 c #bbeebb",
".m c #bebe23",
"#g c #bebebc",
".t c #c0c0c0",
".Y c #c0ffff",
".L c #c1362a",
".N c #c20a08",
"#f c #d6d6d8",
".f c #d7f5d4",
".S c #d7f5d7",
".c c #dee2a4",
".d c #e2e28c",
".k c #e2e2e4",
".O c #ecfaec",
".e c #edfaeb",
".Z c #ffc0c0",
".j c #ffffff",
"QtQtQtQtQtQtQtQtQtQtQtQtQtQtQtQtQtQtQtQt",
"QtQtQtQtQtQtQtQtQtQtQtQtQtQtQtQtQtQtQtQt",
"QtQtQt.#.#.#.#.#.#.#.a.b.b.b.b.b.bQtQtQt",
"QtQt.#.c.d.e.f.g.h.i.a.j.j.j.j.j.k.lQtQt",
"QtQt.#.m.n.o.o.p.q.r.a.s.s.s.s.s.t.lQtQt",
"QtQt.#.c.d.u.u.v.w.x.a.l.l.l.l.l.t.lQtQt",
"QtQt.#.m.n.y.z.w.A.B.a.l.C.l.D.l.t.lQtQt",
"QtQt.#.c.d.E.F.G.H.I.a.l.l.l.l.l.t.lQtQt",
"QtQt.#.m.n.J.v.w.K.L.a.l.M.l.N.l.t.lQtQt",
"QtQtQt.#.O.P.w.A.Q.R.a.l.l.l.l.l.t.lQtQt",
"QtQtQt.#.S.T.U.V.W.X.a.l.Y.l.Z.l.t.lQtQt",
"QtQtQt.#.0.1.W.2.3.4.a.l.l.l.l.l.t.lQtQt",
"QtQtQt.#.5.2.6.4.6.7.a.t.t.t.t.t.t.lQtQt",
"QtQtQt.#.8.9#.###..7.a#a#a#a#b#c#a.lQtQt",
"QtQtQt.##d#e.7.7.7.7.a.l.l.l.l.l.lQtQtQt",
"QtQtQt.a.a.a.a.a.a.a.a#f#a.lQtQtQtQtQtQt",
"QtQtQtQt.b#g.t.t.t.t.t.t.t.t.t.lQtQtQtQt",
"QtQtQtQt.l.l.l.l.l.l.l.l.l.l.l.lQtQtQtQt",
"QtQtQtQtQtQtQtQtQtQtQtQtQtQtQtQtQtQtQtQt",
"QtQtQtQtQtQtQtQtQtQtQtQtQtQtQtQtQtQtQtQt"};
