/* XPM */
static char *refl[]={
"20 20 69 2",
".u c None",
"Qt c None",
".k c #000000",
".3 c #010101",
".8 c #020202",
".U c #040404",
".l c #040d00",
".L c #050505",
".h c #0c2600",
"#a c #0d0d0d",
".T c #111111",
".g c #113800",
".6 c #121212",
".J c #124515",
".B c #153c17",
".b c #154400",
".C c #161616",
".2 c #191919",
".7 c #1a1a1a",
".r c #1b521e",
".v c #1b571a",
".o c #1c4e1f",
".s c #1c501b",
"#c c #1e1e1e",
".a c #1e5421",
".e c #208a17",
".i c #215824",
".H c #232323",
".m c #235326",
".D c #244926",
".y c #249215",
"#b c #262626",
".# c #265c28",
".x c #289b19",
".c c #295f2c",
".R c #2d2d2d",
".z c #2f783f",
".F c #2f7a41",
".f c #2fa522",
".W c #313131",
".X c #333333",
".S c #363636",
".Z c #373737",
"## c #3d3d3d",
".q c #3fbe31",
".K c #44cb35",
".G c #44cd36",
".5 c #454545",
".A c #46cf36",
".1 c #4c4c4c",
".O c #525252",
".N c #535353",
".t c #56a64f",
".Q c #585858",
"#. c #5d5d5d",
".p c #6ebc66",
".V c #7b7b7b",
".0 c #818181",
".9 c #929292",
".Y c #9f9f9f",
".P c #a9a9a9",
".n c #a9d7ad",
".4 c #b2b2b2",
".d c #b3d8b2",
".w c #b5d7b3",
".I c #b8b8b8",
".M c #bababa",
".E c #c6e0c4",
".j c #dbecda",
"QtQtQtQtQtQtQtQtQtQtQtQtQtQtQtQtQtQtQtQt",
"QtQtQtQtQtQtQtQtQtQtQtQtQtQtQtQtQtQtQtQt",
"QtQtQtQtQtQtQt.#.a.a.a.a.bQtQtQtQtQtQtQt",
"QtQtQtQtQtQt.c.d.e.f.b.g.h.b.bQtQtQtQtQt",
"QtQtQtQtQt.i.j.e.f.bQtQtQt.k.l.bQtQtQtQt",
"QtQtQtQtQt.m.n.f.bQtQtQtQtQtQt.k.bQtQtQt",
"QtQtQtQtQt.o.p.q.bQtQtQtQtQtQtQtQtQtQtQt",
"QtQt.r.s.r.o.t.q.b.b.b.bQtQt.uQtQtQtQtQt",
"QtQtQt.v.w.p.x.y.z.A.BQtQt.CQtQt.uQtQtQt",
"QtQtQtQt.D.E.y.F.G.BQtQt.H.I.kQtQtQtQtQt",
"QtQtQtQtQt.J.w.K.BQtQt.L.M.N.O.kQtQtQtQt",
"QtQtQtQtQtQt.B.BQtQt.k.P.Q.R.S.O.kQtQtQt",
"QtQtQtQtQtQtQtQtQt.T.T.U.V.W.V.T.T.TQtQt",
"QtQtQtQtQtQtQtQtQtQtQt.X.Y.Z.kQtQtQtQtQt",
"QtQtQt.k.kQtQtQtQtQtQt.k.0.1.2QtQtQtQtQt",
"QtQtQtQt.3.3.kQtQtQt.k.4.Q.5.kQtQtQtQtQt",
"QtQtQtQtQt.6.7.k.8.N.9#.###aQtQtQtQtQtQt",
"QtQtQtQtQtQtQt.T#b.k.k#c.kQtQtQtQtQtQtQt",
"QtQtQtQtQtQtQtQtQtQtQtQtQtQtQtQtQtQtQtQt",
"QtQtQtQtQtQtQtQtQtQtQtQtQtQtQtQtQtQtQtQt"};
