/* XPM */
static char *shdn[]={
"20 20 209 2",
".# c None",
"Qt c None",
"a7 c #42413c",
"bd c #434136",
"be c #434341",
"a6 c #454232",
"aX c #46412d",
"a8 c #4b4c4c",
"#g c #4d4b4c",
"bk c #4f4f4b",
"bc c #514a2b",
"aM c #51504a",
"bf c #515152",
"a5 c #534c29",
"bj c #535041",
"aY c #535252",
".6 c #574b4d",
"bl c #585859",
"#t c #5b5959",
"bb c #605724",
"aL c #62571d",
"bg c #636363",
"#h c #645c3c",
"aW c #655a21",
"a4 c #655b23",
"bi c #676557",
"ay c #695e1e",
"az c #69675c",
"#u c #6c6759",
"a9 c #6c6c6c",
"bm c #6c6c6d",
"#f c #6e6b6c",
"aV c #71641e",
"a3 c #72651f",
"am c #726521",
".O c #743532",
"a# c #74671f",
"bh c #747473",
".G c #753532",
"aK c #75681e",
"ba c #766923",
".5 c #76696a",
"aU c #77691d",
"aJ c #776a1e",
".7 c #786835",
"ax c #786a1f",
"aT c #786b1e",
"aI c #796b1e",
"aS c #796b1f",
"al c #796c20",
"aw c #7a6c1f",
"av c #7a6d1f",
"aR c #7b6d1f",
"a. c #7b6d20",
"ak c #7b6e1f",
"aH c #7c6d20",
"#s c #7c7979",
"aj c #7d6f21",
"#X c #7d7020",
"bn c #7d7d7d",
"aG c #7e7021",
"#9 c #7e7022",
"au c #7f7023",
"ai c #807223",
"aF c #807224",
"at c #817425",
"#Y c #817a53",
".V c #823a2b",
".w c #825452",
"ah c #827426",
"a2 c #837522",
".W c #845446",
"#8 c #847524",
"aQ c #857623",
"aa c #86805f",
"aN c #868784",
".v c #872925",
"as c #87792a",
"#e c #878066",
"an c #87826a",
"bo c #878786",
"ag c #887a2b",
"aE c #897a27",
"b. c #89846a",
".4 c #8a7f65",
".N c #8b2c27",
"aB c #8d8665",
"#7 c #8e8029",
"b# c #8e8032",
".U c #913b37",
"ar c #918230",
"af c #928435",
".F c #932e2a",
"#W c #948428",
".H c #948a8a",
"#K c #968d54",
"aZ c #97989d",
".M c #982e29",
".m c #98615f",
".P c #988d8d",
".X c #9b8c7e",
"a0 c #9c904b",
"aA c #9c9ca1",
"#6 c #9d8b2e",
"#r c #9d988f",
"#F c #9e9259",
"#Z c #9e9978",
".n c #a08b8a",
"#J c #a09244",
"#y c #a29a6d",
".T c #a33c38",
"#x c #a39651",
"#L c #a39b78",
"ao c #a49850",
"#V c #a5922d",
"ae c #a59640",
".L c #a8312c",
".l c #a8413d",
".0 c #a8a391",
"a1 c #a9962b",
"aq c #a9962e",
"#. c #a9a072",
"#l c #a9a175",
".u c #aa302a",
"aD c #aa972c",
"aP c #aa982b",
".E c #ab322d",
".e c #ab9695",
"#G c #ab9a40",
"aO c #ae9c37",
".x c #afb1b1",
".d c #b18381",
".a c #b1afaf",
".Q c #b28e8a",
"#U c #b29f30",
"#E c #b2a66e",
".f c #b3b5b5",
"#k c #b5a241",
"#z c #b5ae75",
"#v c #b6a239",
"#5 c #b7a435",
"ab c #b7a544",
".9 c #b7a649",
".S c #b94e49",
"ad c #b9a637",
".b c #ba908e",
".o c #ba9795",
".1 c #bab282",
"#w c #bba633",
"#T c #bca732",
".Z c #bdbba9",
"#j c #bea830",
"#H c #bea930",
"#I c #bea936",
".Y c #bebec1",
".c c #c0807e",
"#i c #c0ab35",
"#a c #c0b36f",
"#0 c #c1ae45",
"#2 c #c1b45d",
".D c #c23c36",
"#S c #c2ab30",
".8 c #c4af47",
".t c #c53a33",
".k c #c5433d",
"aC c #c6b030",
".2 c #c6b970",
".g c #c88481",
"#O c #c9b548",
"## c #c9c17d",
"#4 c #cbb43b",
"#m c #ccc676",
".K c #ce433e",
".3 c #cebe61",
".R c #d0706b",
"#M c #d0c049",
"ap c #d1b936",
"#b c #d1bc49",
"#3 c #d2bc40",
".y c #d37773",
"#R c #d3bb33",
"#D c #d3c160",
".h c #da6560",
"#P c #dbc33a",
"#q c #dbc657",
".j c #dd4942",
".s c #de4640",
"ac c #dfc842",
"#Q c #e0c639",
"#C c #e3c93c",
"#d c #e4cb43",
"#A c #e4d54b",
".i c #e54c46",
".p c #e6625b",
"#B c #e6cc3b",
"#p c #e6cd3b",
"#o c #e7cd3d",
"#c c #e8cd3a",
".J c #e94d46",
"#n c #ead949",
"#N c #ecd943",
".r c #ee4e47",
".C c #ef615b",
"#1 c #f2e252",
".z c #f55d55",
".q c #fb4c45",
".B c #fb6c65",
".I c #fc5951",
".A c #fe6a62",
"QtQtQtQtQtQt.#.a.b.c.d.e.f.#QtQtQtQtQtQt",
"QtQtQtQtQt.#.g.h.i.j.k.l.m.n.#QtQtQtQtQt",
"QtQtQtQt.#.o.p.q.r.s.t.u.v.w.x.#QtQtQtQt",
"QtQtQtQt.#.y.z.A.B.C.D.E.F.G.H.#QtQtQtQt",
"QtQtQtQt.#.#.z.I.J.K.L.M.N.O.P.#.#.#QtQt",
"QtQtQtQt.#.#.Q.R.S.T.U.V.W.X.Y.#.#.#.#Qt",
"QtQt.#.Z.0.1.2.3.4.5.6.7.8.9#..#.#.#.#Qt",
"QtQt.####a#b#c#d#e#f#g#h#i#j#k#l.#.#.#Qt",
"QtQt.##m#n#o#p#q#r#s#t#u#v#j#w#x#y.#QtQt",
"QtQt.##z#A#o#B#C#D#E#F#G#j#H#I#J#K.#.#Qt",
"QtQt.##L#M#N#O#P#Q#R#S#T#U#V#W#X#Y.#.#.#",
"QtQt.##Z#0#1#2#3#4#5#6#7#8#9a.a#aa.#.#.#",
"QtQt.##Zabacadaeafagahaiajakalaman.#.#.#",
"QtQt.##Zaoapaqarasatauajavawaxayaz.#.#Qt",
"QtQt.#aAaBaCaDaEaFaGaHawaIaJaKaLaM.#.#Qt",
"QtQtQt.#aNaOaPaQa.aRaSaTaUaVaWaXaY.#.#.#",
"QtQtQt.#aZa0a1a2axaxa3a4a5a6a7a8a9.#.#Qt",
"QtQtQt.#.#b.b#babbbcbdbebfbgbh.#.#.#.#Qt",
"QtQtQtQtQt.#bibjbkblbmbnbo.#.#.#.#.#.#Qt",
"QtQtQtQtQt.#.#.#.#.#.#.#.#.#.#.#.#.#.#Qt"};
