/* XPM */
static char *stop[]={
"20 20 4 1",
"# c None",
". c None",
"b c #000000",
"a c #ffffff",
"....................",
"....................",
".........##.........",
".....aaaa##aaaa.....",
".....abba##abba.....",
".....abba##abba.....",
".....abba##abba.....",
".....abba##abba.....",
".....abba##abba.....",
".....abba##abba.....",
".....abba##abba.....",
".....abba##abba.....",
".....abba##abba.....",
".....abba##abba.....",
".....abba##abba.....",
".....abba##abba.....",
".....aaaa##aaaa.....",
"....................",
"....................",
"...................."};
