/* XPM */
static char *unzm[]={
"20 20 148 2",
"#1 c None",
"Qt c None",
"ad c #000000",
"ao c #020202",
"an c #0b0b0b",
"#F c #10131b",
"ap c #121313",
"#O c #1a1910",
"#7 c #1a1a1a",
"ac c #212121",
"ak c #212222",
"#v c #212328",
"aq c #242527",
"aj c #282729",
"#0 c #282828",
"#X c #292b26",
"ar c #2b2b2b",
"#9 c #2f2f32",
"ae c #323133",
"#S c #323338",
"#a c #353635",
"#8 c #363535",
"#r c #378fa1",
"#4 c #393e44",
".9 c #398491",
"a. c #3a3f40",
"ai c #3d3d3e",
".b c #3e3e3f",
"#q c #3f99a8",
"af c #434748",
"#j c #4398a6",
".Y c #449bae",
".1 c #454545",
"#u c #464648",
"#i c #48adc0",
"#N c #494e52",
"ab c #4a494b",
"al c #4d5152",
"#3 c #504c2d",
"#E c #515050",
".a c #515253",
".8 c #51a9bc",
"#p c #52abbc",
"am c #535455",
".c c #545556",
".l c #555556",
"#H c #564b15",
"#V c #595657",
"#W c #5b5d5e",
".d c #5c5d5e",
"#U c #5e5b5c",
".e c #5f5c5d",
".# c #5f5f60",
".v c #626467",
"#R c #635920",
"#2 c #64581b",
"#w c #64615f",
".N c #65b7c8",
"#b c #666666",
".F c #686969",
"#h c #68c4d8",
".E c #6a6968",
"#T c #6b6969",
".f c #6b6d6e",
"#I c #6b7d7f",
".X c #6bc3da",
".7 c #6ccade",
"#o c #71becb",
"#. c #75c7d4",
"#M c #768c8f",
".Z c #7ec7d4",
"#g c #80c9d9",
"#f c #87cddb",
".M c #89d0df",
".W c #89d3e4",
".B c #8bcedc",
".m c #8c8f90",
"#e c #92d3e0",
"#s c #92d9ec",
"#A c #93d8e4",
"#B c #94d8e7",
".O c #94d8e8",
"a# c #979698",
".C c #98d8e4",
"ag c #99999b",
".u c #9a9999",
"#l c #9ba6a9",
".6 c #9cdbe8",
".V c #9fdbe8",
"ah c #a1a1a2",
".L c #a1dbe8",
"#G c #a39243",
"#Y c #a3965a",
".A c #a3dbe8",
"#z c #a3dde8",
"#J c #a5b6bb",
".5 c #a5ddea",
"#k c #a7e0ec",
"#5 c #a8a8aa",
".g c #abb1b0",
"#c c #adb2b2",
"#L c #adbabd",
".4 c #aedfe7",
".k c #b0b7ba",
"aa c #b1b1b1",
"#Z c #b2b2b3",
".P c #b2c9cc",
"#n c #b3eaf7",
".U c #b5e3ee",
"#K c #b8cbcd",
"#m c #bacbcc",
".K c #bae5ee",
".G c #bcc3c3",
"#P c #bda44c",
"#y c #bfe6f0",
".r c #c0edf9",
"## c #c1e1e7",
".s c #c2f1fb",
"#6 c #c3c3c3",
".S c #c3e6f1",
"#C c #c4eff9",
"#x c #c5cdce",
".0 c #c7eaf2",
"#d c #c9ecf3",
".D c #cee9ed",
".z c #ceeef4",
".q c #cff3fc",
".h c #d0dcdd",
"#D c #d1dbdd",
".2 c #d1dcdc",
".j c #d1dfe2",
".3 c #d2eff4",
".i c #d8e8eb",
".w c #dae7e9",
".t c #daf3f6",
".Q c #dbe3e5",
".n c #dceaeb",
".T c #dcf3f7",
".R c #dcf4fb",
"#t c #def0f1",
".I c #e2f4f9",
".p c #e2fbff",
".J c #e3f6f8",
".H c #e4f7f9",
".y c #fafefe",
".o c #feffff",
"#Q c #fffff3",
".x c #ffffff",
"QtQtQtQtQtQtQtQtQtQtQtQtQtQtQtQtQtQtQtQt",
"QtQtQtQtQt.#.a.b.c.dQtQtQtQtQtQtQtQtQtQt",
"QtQtQt.e.f.g.h.i.j.k.lQtQtQtQtQtQtQtQtQt",
"QtQtQt.m.n.o.p.q.r.s.t.uQtQtQtQtQtQtQtQt",
"QtQt.v.w.x.x.y.z.A.B.C.D.EQtQtQtQtQtQtQt",
"Qt.F.G.H.I.x.J.K.L.M.N.O.PQtQtQtQtQtQtQt",
"Qt.b.Q.R.S.T.U.V.W.X.Y.Z.0.1QtQtQtQtQtQt",
"Qt.b.2.3.4.5.6.W.7.8.9#.###aQtQtQtQtQtQt",
"Qt#b#c#d#e#f#g#h#i.9#j#k#l.1QtQtQtQtQtQt",
"QtQt.b#m#n#o#p#q.9#r#s#t#u#vQtQtQtQtQtQt",
"QtQtQt#w#x#y#z#A#B#C#D#E#F#G#HQtQtQtQtQt",
"QtQtQtQt.b#I#J#K#L#M#N#O#P#Q#R#SQtQtQtQt",
"QtQtQtQtQt#T#U.b#V#W#X#R#Y#Z.x.b#0QtQtQt",
"QtQtQt#1#1QtQtQtQtQtQt#2#3#4#5#6.b#7QtQt",
"QtQtQt#1#1QtQtQtQtQtQtQt#8#9a.a#aaabacQt",
"QtadadadadadadQtQtQtQtQtQtadaeafagahaiQt",
"Qt.d.d.d.d.d.dQtQtQtQtQtQtQtajakalamanQt",
"QtQtQt#1#1QtQtQtQtQtQtQtQtQtQtaoapaqarQt",
"QtQtQt#1#1QtQtQtQtQtQtQtQtQtQtQtQtQtQtQt",
"QtQtQtQtQtQtQtQtQtQtQtQtQtQtQtQtQtQtQtQt"};
