/* XPM */
static char * zoom_in_xpm[] = {
"32 32 29 1",
" 	c None",
".	c #000000",
"+	c #F7F7F7",
"@	c #CCCCCC",
"#	c #969696",
"$	c #6B6B6B",
"%	c #404040",
"&	c #A5A5A5",
"*	c #DEDEDE",
"=	c #111111",
"-	c #838383",
";	c #E6E6E6",
">	c #BDBDBD",
",	c #7B7B7B",
"'	c #FFFFFF",
")	c #080808",
"!	c #EFEFEF",
"~	c #1F1F1F",
"{	c #B5B5B5",
"]	c #666666",
"^	c #737373",
"/	c #8C8C8C",
"(	c #D6D6D6",
"_	c #C5C5C5",
":	c #999999",
"<	c #AEAEAE",
"[	c #282828",
"}	c #181818",
"|	c #333333",
"                                ",
"                                ",
"                                ",
"                                ",
"          >((_                  ",
"       :@*!!!;*(>               ",
"      {*!++++!!;*@              ",
"     /*!!!!::!;;;*>             ",
"     (*!!!!::;;;;*(             ",
"     (*;;;;::****((-            ",
"    #(*****::****((@            ",
"    <((::::::::::(((            ",
"    {((::::::::::(((            ",
"    /((((((::((((((_            ",
"     ((((((::((((((,            ",
"     _(((((::((((((             ",
"      (((((::(((((<             ",
"      <((((((((((@-|            ",
"        _(((((((&-.],           ",
"          :@(&   ...],          ",
"                  ...],         ",
"                   ...],        ",
"                    ...]-       ",
"                     ...)-      ",
"                      ...],     ",
"                       ...]     ",
"                        ...     ",
"                                ",
"                                ",
"                                ",
"                                ",
"                                "};
