/* XPM */
static char *zoom[]={
"20 20 148 2",
".# c None",
"Qt c None",
"#2 c #000000",
"ao c #020202",
"an c #0b0b0b",
"#G c #10131b",
"ap c #121313",
"#P c #1a1910",
"#8 c #1a1a1a",
"ad c #212121",
"ak c #212222",
"#w c #212328",
"aq c #242527",
"aj c #282729",
"#1 c #282828",
"#Y c #292b26",
"ar c #2b2b2b",
"a. c #2f2f32",
"ae c #323133",
"#T c #323338",
"#b c #353635",
"#9 c #363535",
"#s c #378fa1",
"#5 c #393e44",
"#. c #398491",
"a# c #3a3f40",
"ai c #3d3d3e",
".c c #3e3e3f",
"#r c #3f99a8",
"af c #434748",
"#k c #4398a6",
".Z c #449bae",
".2 c #454545",
"#v c #464648",
"#j c #48adc0",
"#O c #494e52",
"ac c #4a494b",
"al c #4d5152",
"#4 c #504c2d",
"#F c #515050",
".b c #515253",
".9 c #51a9bc",
"#q c #52abbc",
"am c #535455",
".d c #545556",
".m c #555556",
"#I c #564b15",
"#W c #595657",
"#X c #5b5d5e",
".e c #5c5d5e",
"#V c #5e5b5c",
".f c #5f5c5d",
".a c #5f5f60",
".w c #626467",
"#S c #635920",
"#3 c #64581b",
"#x c #64615f",
".O c #65b7c8",
"#c c #666666",
".G c #686969",
"#i c #68c4d8",
".F c #6a6968",
"#U c #6b6969",
".g c #6b6d6e",
"#J c #6b7d7f",
".Y c #6bc3da",
".8 c #6ccade",
"#p c #71becb",
"## c #75c7d4",
"#N c #768c8f",
".0 c #7ec7d4",
"#h c #80c9d9",
"#g c #87cddb",
".N c #89d0df",
".X c #89d3e4",
".C c #8bcedc",
".n c #8c8f90",
"#f c #92d3e0",
"#t c #92d9ec",
"#B c #93d8e4",
"#C c #94d8e7",
".P c #94d8e8",
"aa c #979698",
".D c #98d8e4",
"ag c #99999b",
".v c #9a9999",
"#m c #9ba6a9",
".7 c #9cdbe8",
".W c #9fdbe8",
"ah c #a1a1a2",
".M c #a1dbe8",
"#H c #a39243",
"#Z c #a3965a",
".B c #a3dbe8",
"#A c #a3dde8",
"#K c #a5b6bb",
".6 c #a5ddea",
"#l c #a7e0ec",
"#6 c #a8a8aa",
".h c #abb1b0",
"#d c #adb2b2",
"#M c #adbabd",
".5 c #aedfe7",
".l c #b0b7ba",
"ab c #b1b1b1",
"#0 c #b2b2b3",
".Q c #b2c9cc",
"#o c #b3eaf7",
".V c #b5e3ee",
"#L c #b8cbcd",
"#n c #bacbcc",
".L c #bae5ee",
".H c #bcc3c3",
"#Q c #bda44c",
"#z c #bfe6f0",
".s c #c0edf9",
"#a c #c1e1e7",
".t c #c2f1fb",
"#7 c #c3c3c3",
".T c #c3e6f1",
"#D c #c4eff9",
"#y c #c5cdce",
".1 c #c7eaf2",
"#e c #c9ecf3",
".E c #cee9ed",
".A c #ceeef4",
".r c #cff3fc",
".i c #d0dcdd",
"#E c #d1dbdd",
".3 c #d1dcdc",
".k c #d1dfe2",
".4 c #d2eff4",
".j c #d8e8eb",
".x c #dae7e9",
".u c #daf3f6",
".R c #dbe3e5",
".o c #dceaeb",
".U c #dcf3f7",
".S c #dcf4fb",
"#u c #def0f1",
".J c #e2f4f9",
".q c #e2fbff",
".K c #e3f6f8",
".I c #e4f7f9",
".z c #fafefe",
".p c #feffff",
"#R c #fffff3",
".y c #ffffff",
"QtQtQtQtQtQtQtQtQtQtQtQtQtQtQtQtQtQtQtQt",
"QtQtQt.#.#.a.b.c.d.e.#.#QtQtQtQtQtQtQtQt",
"Qt.#.#.f.g.h.i.j.k.l.m.#.#.#QtQtQtQtQtQt",
"Qt.#.#.n.o.p.q.r.s.t.u.v.#.#.#QtQtQtQtQt",
"Qt.#.w.x.y.y.z.A.B.C.D.E.F.#.#.#QtQtQtQt",
"Qt.G.H.I.J.y.K.L.M.N.O.P.Q.#.#.#QtQtQtQt",
"Qt.c.R.S.T.U.V.W.X.Y.Z.0.1.2.#.#.#QtQtQt",
"Qt.c.3.4.5.6.7.X.8.9#.###a#b.#.#.#.#QtQt",
"Qt#c#d#e#f#g#h#i#j#.#k#l#m.2.#.#.#QtQtQt",
"Qt.#.c#n#o#p#q#r#.#s#t#u#v#w.#.#.#QtQtQt",
"Qt.#.##x#y#z#A#B#C#D#E#F#G#H#I.#.#QtQtQt",
"Qt.#.#.#.c#J#K#L#M#N#O#P#Q#R#S#T.#.#QtQt",
"Qt.#.#.#.##U#V.c#W#X#Y#S#Z#0.y.c#1.#.#Qt",
"Qt.#.#.e#2.#.#.#.#.#.##3#4#5#6#7.c#8.#Qt",
"QtQt.#.e#2.#.#.#.#.#.#.##9a.a#aaabacadQt",
"Qt#2#2#2#2#2#2.#.#.#.#.#.##2aeafagahaiQt",
"Qt.e.e#2#2.e.e.#.#.#.#.#.#.#ajakalamanQt",
"Qt.#.#.e#2.#.#.#QtQtQtQt.#.#.#aoapaqarQt",
"Qt.#.#.e#2.#.#.#QtQtQtQtQt.#.#.#.#.#.#Qt",
"QtQtQtQtQtQtQtQtQtQtQtQtQtQtQtQtQtQtQtQt"};
