/* XPM */
static char * zoom_out_xpm[] = {
"32 32 29 1",
" 	c None",
".	c #000000",
"+	c #FFFFFF",
"@	c #D6D6D6",
"#	c #8C8C8C",
"$	c #6B6B6B",
"%	c #404040",
"&	c #AEAEAE",
"*	c #DEDEDE",
"=	c #E6E6E6",
"-	c #111111",
";	c #7B7B7B",
">	c #C5C5C5",
",	c #EFEFEF",
"'	c #999999",
")	c #080808",
"!	c #1F1F1F",
"~	c #BDBDBD",
"{	c #F7F7F7",
"]	c #666666",
"^	c #838383",
"/	c #737373",
"(	c #A5A5A5",
"_	c #CCCCCC",
":	c #B5B5B5",
"<	c #282828",
"[	c #181818",
"}	c #969696",
"|	c #333333",
"                                ",
"                                ",
"                                ",
"                                ",
"          ~@@>                  ",
"       '_*,,,=*@~               ",
"      :*,{{{{,,=*_              ",
"     #*,,,,,,,===*~             ",
"     @*,,,=======@@             ",
"     @*=====*****@@;            ",
"    }@***********@@_            ",
"    &@@''''''''''@@@            ",
"    :@@''''''''''@@@            ",
"    #@@@@@@@@@@@@@@>            ",
"     @@@@@@@@@@@@@@;            ",
"     >@@@@@@@@@@@@@             ",
"      @@@@@@@@@@@@&             ",
"      &@@@@@@@@@@_^|            ",
"        >@@@@@@@'^.];           ",
"          '_@(   ...];          ",
"                  ...];         ",
"                   ...];        ",
"                    ...]^       ",
"                     ...)^      ",
"                      ...];     ",
"                       ...]     ",
"                        ...     ",
"                                ",
"                                ",
"                                ",
"                                ",
"                                "};
